<?xml version="1.0" encoding="utf-8"?>
<!-- Generator: Adobe Illustrator 16.0.0, SVG Export Plug-In . SVG Version: 6.00 Build 0)  -->
<!DOCTYPE svg PUBLIC "-//W3C//DTD SVG 1.1//EN" "http://www.w3.org/Graphics/SVG/1.1/DTD/svg11.dtd">
<svg version="1.1" id="Layer_1" xmlns:sketch="http://www.bohemiancoding.com/sketch/ns"
	 xmlns="http://www.w3.org/2000/svg" xmlns:xlink="http://www.w3.org/1999/xlink" x="0px" y="0px" width="421px" height="419px"
	 viewBox="0 0 421 419" enable-background="new 0 0 421 419" xml:space="preserve">
<title>Floorplan-wip</title>
<description>Created with Sketch (http://www.bohemiancoding.com/sketch)</description>
<g id="Page_1">
	<g id="Layer_1_1_" transform="translate(0.000000, 1.000000)">
		<g id="INSERT_12_" transform="translate(353.000000, 33.000000)">
			<g id="LINE_232_" transform="translate(61.000000, 0.000000)">
				<path id="Shape" fill="none" stroke="#FFFF00" stroke-width="0.5102" d="M0.127,46.904V0.775"/>
			</g>
			<g id="LINE_233_">
				<path id="Shape_1_" fill="none" stroke="#FFFF00" stroke-width="0.5102" d="M61.127,0.775H0.391"/>
			</g>
			<g id="LINE_234_">
				<path id="Shape_2_" fill="none" stroke="#FFFF00" stroke-width="0.5102" d="M0.391,0.775v46.129"/>
			</g>
			<g id="LINE_235_" transform="translate(0.000000, 46.000000)">
				<path id="Shape_3_" fill="none" stroke="#FFFF00" stroke-width="0.5102" d="M0.391,0.904h60.736"/>
			</g>
			<g id="LINE_236_" transform="translate(38.000000, 1.000000)">
				<path id="Shape_4_" fill="none" stroke="#FFFF00" stroke-width="0.5102" d="M7.366,45.136L0.452,0.544"/>
			</g>
			<g id="LINE_237_" transform="translate(45.000000, 44.000000)">
				<path id="Shape_5_" fill="none" stroke="#FFFF00" stroke-width="0.5102" d="M13.052,0.598H0.366"/>
			</g>
			<g id="LINE_238_" transform="translate(45.000000, 25.000000)">
				<path id="Shape_6_" fill="none" stroke="#FFFF00" stroke-width="0.5102" d="M0.366,0.762v18.836"/>
			</g>
			<g id="LINE_239_" transform="translate(45.000000, 25.000000)">
				<path id="Shape_7_" fill="none" stroke="#FFFF00" stroke-width="0.5102" d="M13.052,0.762H0.366"/>
			</g>
			<g id="LINE_240_" transform="translate(58.000000, 25.000000)">
				<path id="Shape_8_" fill="none" stroke="#FFFF00" stroke-width="0.5102" d="M0.052,0.762v18.836"/>
			</g>
			<g id="LINE_241_" transform="translate(45.000000, 21.000000)">
				<path id="Shape_9_" fill="none" stroke="#FFFF00" stroke-width="0.5102" d="M13.052,0.918H0.366"/>
			</g>
			<g id="LINE_242_" transform="translate(45.000000, 3.000000)">
				<path id="Shape_10_" fill="none" stroke="#FFFF00" stroke-width="0.5102" d="M0.366,0.082v18.836"/>
			</g>
			<g id="LINE_243_" transform="translate(45.000000, 3.000000)">
				<path id="Shape_11_" fill="none" stroke="#FFFF00" stroke-width="0.5102" d="M13.052,0.082H0.366"/>
			</g>
			<g id="LINE_244_" transform="translate(58.000000, 3.000000)">
				<path id="Shape_12_" fill="none" stroke="#FFFF00" stroke-width="0.5102" d="M0.052,0.082v18.836"/>
			</g>
			<g id="LINE_245_" transform="translate(1.000000, 46.000000)">
				<path id="Shape_13_" fill="none" stroke="#FFFF00" stroke-width="0.5102" d="M59.357,0.136H0.159"/>
			</g>
			<g id="LINE_246_" transform="translate(1.000000, 1.000000)">
				<path id="Shape_14_" fill="none" stroke="#FFFF00" stroke-width="0.5102" d="M0.159,0.544v44.592"/>
			</g>
			<g id="LINE_247_" transform="translate(1.000000, 1.000000)">
				<path id="Shape_15_" fill="none" stroke="#FFFF00" stroke-width="0.5102" d="M59.357,0.544H0.159"/>
			</g>
			<g id="LINE_248_" transform="translate(60.000000, 1.000000)">
				<path id="Shape_16_" fill="none" stroke="#FFFF00" stroke-width="0.5102" d="M0.357,0.544v44.592"/>
			</g>
		</g>
		<g id="INSERT_54_" transform="translate(391.000000, 196.000000)">
			<g id="INSERT_53_">
				<g id="LINE_780_" transform="translate(1.000000, 46.000000)">
					<path id="Shape_17_" fill="none" stroke="#999999" stroke-width="0.3685" d="M20.781,0.893H0.023"/>
				</g>
				<g id="LINE_781_" transform="translate(21.000000, 46.000000)">
					<path id="Shape_18_" fill="none" stroke="#000000" stroke-width="0.3685" d="M0.974,0.832L0.781,0.893"/>
				</g>
				<g id="LINE_782_" transform="translate(0.000000, 46.000000)">
					<path id="Shape_19_" fill="none" stroke="#000000" stroke-width="0.3685" d="M1.023,0.893L0.831,0.832"/>
				</g>
				<g id="LINE_783_" transform="translate(0.000000, 46.000000)">
					<path id="Shape_20_" fill="none" stroke="#000000" stroke-width="0.3685" d="M0.831,0.832L0.699,0.7"/>
				</g>
				<g id="LINE_784_" transform="translate(21.000000, 46.000000)">
					<path id="Shape_21_" fill="none" stroke="#000000" stroke-width="0.3685" d="M1.118,0.7L0.974,0.832"/>
				</g>
				<g id="LINE_785_" transform="translate(22.000000, 1.000000)">
					<path id="Shape_22_" fill="none" stroke="#999999" stroke-width="0.3685" d="M0.166,0.147v45.361"/>
				</g>
				<g id="LINE_786_" transform="translate(22.000000, 0.000000)">
					<path id="Shape_23_" fill="none" stroke="#000000" stroke-width="0.3685" d="M0.118,0.956l0.048,0.191"/>
				</g>
				<g id="LINE_787_" transform="translate(22.000000, 46.000000)">
					<path id="Shape_24_" fill="none" stroke="#000000" stroke-width="0.3685" d="M0.166,0.508L0.118,0.7"/>
				</g>
				<g id="LINE_788_" transform="translate(0.000000, 1.000000)">
					<path id="Shape_25_" fill="none" stroke="#999999" stroke-width="0.3685" d="M0.639,45.508V0.147"/>
				</g>
				<g id="LINE_789_" transform="translate(0.000000, 46.000000)">
					<path id="Shape_26_" fill="none" stroke="#000000" stroke-width="0.3685" d="M0.699,0.7L0.639,0.508"/>
				</g>
				<g id="LINE_790_">
					<path id="Shape_27_" fill="none" stroke="#000000" stroke-width="0.3685" d="M0.639,1.147l0.061-0.191"/>
				</g>
				<g id="LINE_791_">
					<path id="Shape_28_" fill="none" stroke="#000000" stroke-width="0.3685" d="M0.699,0.956l0.132-0.144"/>
				</g>
				<g id="LINE_792_" transform="translate(21.000000, 0.000000)">
					<path id="Shape_29_" fill="none" stroke="#000000" stroke-width="0.3685" d="M0.974,0.812l0.145,0.144"/>
				</g>
				<g id="LINE_793_" transform="translate(21.000000, 0.000000)">
					<path id="Shape_30_" fill="none" stroke="#000000" stroke-width="0.3685" d="M0.781,0.764l0.192,0.048"/>
				</g>
				<g id="LINE_794_">
					<path id="Shape_31_" fill="none" stroke="#000000" stroke-width="0.3685" d="M0.831,0.812l0.192-0.048"/>
				</g>
				<g id="LINE_795_" transform="translate(1.000000, 0.000000)">
					<path id="Shape_32_" fill="none" stroke="#999999" stroke-width="0.3685" d="M0.023,0.764h20.758"/>
				</g>
			</g>
		</g>
		<g id="INSERT_61_" transform="translate(155.000000, 189.000000)">
			<g id="INSERT_56_" transform="translate(65.000000, 6.000000)">
				<g id="INSERT_55_">
					<g id="LINE_796_" transform="translate(37.000000, 0.000000)">
						<path id="Shape_33_" fill="none" stroke="#999999" stroke-width="0.3685" d="M0.289,0.114h4.613"/>
					</g>
					<g id="LINE_797_" transform="translate(41.000000, 0.000000)">
						<path id="Shape_34_" fill="none" stroke="#999999" stroke-width="0.3685" d="M0.902,0.114v23.064"/>
					</g>
					<g id="LINE_798_" transform="translate(0.000000, 23.000000)">
						<path id="Shape_35_" fill="none" stroke="#999999" stroke-width="0.3685" d="M0.386,0.179h41.517"/>
					</g>
					<g id="LINE_799_" transform="translate(0.000000, 12.000000)">
						<path id="Shape_36_" fill="none" stroke="#000000" stroke-width="0.3685" d="M0.386,0.526v10.653"/>
					</g>
				</g>
			</g>
			<g id="INSERT_58_" transform="translate(0.000000, 6.000000)">
				<g id="INSERT_57_">
					<g id="LINE_800_">
						<path id="Shape_37_" fill="none" stroke="#999999" stroke-width="0.3685" d="M0.806,0.114h27.677"/>
					</g>
					<g id="LINE_801_" transform="translate(65.000000, 12.000000)">
						<path id="Shape_38_" fill="none" stroke="#999999" stroke-width="0.3685" d="M0.386,0.526v10.653"/>
					</g>
					<g id="LINE_802_" transform="translate(0.000000, 23.000000)">
						<path id="Shape_39_" fill="none" stroke="#999999" stroke-width="0.3685" d="M0.806,0.179h64.58"/>
					</g>
					<g id="LINE_803_">
						<path id="Shape_40_" fill="none" stroke="#999999" stroke-width="0.3685" d="M0.806,0.114v23.064"/>
					</g>
				</g>
			</g>
			<g id="INSERT_60_" transform="translate(28.000000, 0.000000)">
				<g id="INSERT_59_">
					<g id="LINE_804_" transform="translate(74.000000, 0.000000)">
						<path id="Shape_41_" fill="none" stroke="#999999" stroke-width="0.3685" d="M0.289,0.075v18.451"/>
					</g>
					<g id="LINE_805_" transform="translate(0.000000, 18.000000)">
						<path id="Shape_42_" fill="none" stroke="#999999" stroke-width="0.3685" d="M74.289,0.526H0.483"/>
					</g>
					<g id="LINE_806_">
						<path id="Shape_43_" fill="none" stroke="#999999" stroke-width="0.3685" d="M0.483,18.526V0.075"/>
					</g>
					<g id="LINE_807_">
						<path id="Shape_44_" fill="none" stroke="#999999" stroke-width="0.3685" d="M0.483,0.075h73.806"/>
					</g>
				</g>
			</g>
		</g>
		<g id="INSERT_65_" transform="translate(7.000000, 145.000000)">
			<g id="INSERT_64_">
				<g id="INSERT_62_" transform="translate(13.000000, 0.000000)">
					<g id="LINE_808_">
						<path id="Shape_45_" fill="none" stroke="#999999" stroke-width="0.3685" d="M0.981,0.253h4.704"/>
					</g>
					<g id="LINE_809_" transform="translate(5.000000, 0.000000)">
						<path id="Shape_46_" fill="none" stroke="#999999" stroke-width="0.3685" d="M0.685,0.253v127.623"/>
					</g>
				</g>
				<g id="INSERT_63_">
					<g id="LWPOLYLINE_19_" transform="translate(0.000000, 46.000000)">
						<path id="Shape_47_" fill="none" stroke="#999999" stroke-width="0.3685" d="M1.002,0.382H0.81H0.618H0.425H0.233"/>
					</g>
					<g id="LINE_810_" transform="translate(0.000000, 129.000000)">
						<path id="Shape_48_" fill="none" stroke="#999999" stroke-width="0.3685" d="M14.072,0.413H0.233"/>
					</g>
					<g id="LINE_811_" transform="translate(14.000000, 127.000000)">
						<path id="Shape_49_" fill="none" stroke="#999999" stroke-width="0.3685" d="M0.072,0.876h4.613"/>
					</g>
					<g id="LINE_812_">
						<path id="Shape_51_" fill="none" stroke="#999999" stroke-width="0.3685" d="M0.233,0.253h13.748"/>
					</g>
					<g id="LINE_813_" transform="translate(0.000000, 46.000000)">
						<path id="Shape_52_" fill="none" stroke="#999999" stroke-width="0.3685" d="M0.233,83.413V0.382"/>
					</g>
					<g id="LINE_814_" transform="translate(14.000000, 46.000000)">
						<path id="Shape_50_" fill="none" stroke="#999999" stroke-width="0.3685" d="M0.072,83.413"/>
					</g>
					<g id="LINE_815_" transform="translate(13.000000, 0.000000)">
						<path id="Shape_55_" fill="none" stroke="#999999" stroke-width="0.3685" d="M0.981,0.253v17.683"/>
					</g>
					<g id="LWPOLYLINE_30_">
						<path id="Shape_66_" fill="none" stroke="#999999" stroke-width="0.3685" d="M0.233,0.253v11.532v11.532V34.85v11.532"/>
					</g>
				</g>
			</g>
		</g>
		<g id="LINE_818_" transform="translate(81.000000, 191.000000)">
			<path id="Shape_67_" fill="none" stroke="#999999" stroke-width="0.3685" d="M17.241,0.382H0.568"/>
		</g>
		<g id="LINE_819_" transform="translate(81.000000, 191.000000)">
			<path id="Shape_68_" fill="none" stroke="#999999" stroke-width="0.3685" d="M0.568,0.382v63.812"/>
		</g>
		<g id="LINE_820_" transform="translate(25.000000, 255.000000)">
			<path id="Shape_69_" fill="none" stroke="#999999" stroke-width="0.3685" d="M56.568,0.193H0.685"/>
		</g>
		<g id="LINE_821_" transform="translate(25.000000, 272.000000)">
			<path id="Shape_70_" fill="none" stroke="#999999" stroke-width="0.3685" d="M0.685,0.876h72.556"/>
		</g>
		<g id="LINE_822_" transform="translate(98.000000, 191.000000)">
			<path id="Shape_71_" fill="none" stroke="#999999" stroke-width="0.3685" d="M0.241,81.876V0.382"/>
		</g>
		<g id="LINE_823_" transform="translate(98.000000, 191.000000)">
			<path id="Shape_72_" fill="none" stroke="#000000" stroke-width="0.3685" d="M0,0"/>
		</g>
		<g id="LINE_824_" transform="translate(25.000000, 272.000000)">
			<path id="Shape_73_" fill="none" stroke="#000000" stroke-width="0.3685" d="M0,0"/>
		</g>
		<g id="INSERT_89_" transform="translate(41.000000, 205.000000)">
			<g id="LINE_13421_">
				<path id="Shape_74_" fill="none" stroke="#999999" stroke-width="0.3685" d="M0.953,35.704V0.873"/>
			</g>
			<g id="LINE_13422_" transform="translate(0.000000, 35.000000)">
				<path id="Shape_75_" fill="none" stroke="#999999" stroke-width="0.3685" d="M22.479,0.704H0.953"/>
			</g>
			<g id="LINE_13423_" transform="translate(22.000000, 0.000000)">
				<path id="Shape_76_" fill="none" stroke="#999999" stroke-width="0.3685" d="M0.479,0.873v34.831"/>
			</g>
			<g id="LINE_13424_">
				<path id="Shape_77_" fill="none" stroke="#999999" stroke-width="0.3685" d="M0.953,0.873h21.526"/>
			</g>
		</g>
		<g id="Group">
			<path id="Shape_78_" fill="none" stroke="#666666" d="M5.889,143.621h29.886v-5H0.889v142.137h35.078v-5H5.889V143.621z"/>
			<path id="Rectangle" fill="none" stroke="#666666" d="M63.261,275.758v5h51.125v-5H63.261z"/>
			<path id="Rectangle_1_" fill="none" stroke="#666666" d="M63.749,138.621v5h51.125v-5H63.749z"/>
			<path id="Shape_79_" fill="none" stroke="#666666" d="M276.46,139.102h-97.956v-4.566h-32.547v-79.81h-5v109.651h5v-24.841
				h27.547v4.566H276.46v20.948h5V133h-5V139.102z"/>
			<path id="Shape_80_" fill="none" stroke="#666666" d="M210.296,62.751h66.164v47.4h5v-52.4h-71.164V62.751z"/>
			<path id="Shape_81_" fill="none" stroke="#666666" d="M313.702,5.331h35.556v-5h-40.556v104.415h5V5.331z"/>
			<path id="Shape_82_" fill="none" stroke="#666666" d="M395.771,0.331v5h19.067V28.97h5V0.331H395.771z"/>
			<path id="Shape_83_" fill="none" stroke="#666666" d="M414.798,111.24h-6.054v5h6.054v18.296h-65.964V116.24h4.845v-5h-9.845
				v23.296h-32.977v5h103.94v55.497h5V84.325h-5V111.24z"/>
			<path id="Shape_84_" fill="none" stroke="#666666" d="M414.798,275.758h-27.34v5h32.34v-28.544h-5V275.758z"/>
			<path id="Shape_85_" fill="none" stroke="#666666" d="M311.686,259.134h-5v21.624h52.231v-5h-47.231V259.134z"/>
		</g>
		<path id="Rectangle_2_" fill="none" stroke="#666666" d="M0.889,280.758v135.886h418.909V280.758H0.889z"/>
	</g>
</g>
<line fill="none" stroke="#999999" stroke-width="0.3685" x1="20.981" y1="146.253" x2="20.959" y2="275.413"/>
</svg>
