<?xml version="1.0" encoding="UTF-8" standalone="no"?>
<svg width="32px" height="32px" viewBox="0 0 32 32" version="1.1" xmlns="http://www.w3.org/2000/svg" xmlns:xlink="http://www.w3.org/1999/xlink" xmlns:sketch="http://www.bohemiancoding.com/sketch/ns">
    <title>v</title>
    <description>Created with Sketch (http://www.bohemiancoding.com/sketch)</description>
    <defs></defs>
    <g id="Page-1" stroke="none" stroke-width="1" fill="none" fill-rule="evenodd" sketch:type="MSPage">
        <g id="params" sketch:type="MSLayerGroup" fill="#859BA2">
            <g id="Page-1" sketch:type="MSShapeGroup">
                <g id="params">
                    <g id="settings_2_">
                        <path d="M8,6.021 L8,3 C8,1.346 6.654,0 5,0 C3.346,0 2,1.346 2,3 L2,6.021 C0.792,6.936 0,8.369 0,10 C0,11.631 0.792,13.064 2,13.977 L2,29 C2,30.654 3.346,32 5,32 C6.654,32 8,30.654 8,29 L8,13.977 C9.208,13.065 10,11.631 10,10 C10,8.369 9.208,6.936 8,6.021 C8,6.021 9.208,6.936 8,6.021 L8,6.021 L8,6.021 L8,6.021 L8,6.021 Z M4,3 C4,2.447 4.447,2 5,2 C5.553,2 6,2.447 6,3 L6,5.1 C5.677,5.035 5.343,5 5,5 C4.657,5 4.323,5.035 4,5.1 L4,3 L4,3 L4,3 L4,3 Z M6,29 C6,29.553 5.553,30 5,30 C4.447,30 4,29.553 4,29 L4,14.898 C4.323,14.965 4.657,15 5,15 C5.343,15 5.677,14.965 6,14.898 L6,29 L6,29 L6,29 L6,29 Z M7.865,10.84 C7.849,10.893 7.835,10.945 7.816,10.998 C7.721,11.262 7.599,11.512 7.438,11.734 C7.434,11.74 7.428,11.744 7.424,11.75 C7.25,11.988 7.043,12.199 6.808,12.377 C6.804,12.381 6.801,12.383 6.798,12.385 C6.557,12.567 6.288,12.713 5.999,12.815 C5.686,12.928 5.353,13 5,13 C4.647,13 4.314,12.928 4,12.814 C3.711,12.712 3.442,12.566 3.201,12.384 C3.198,12.382 3.195,12.38 3.191,12.376 C2.956,12.198 2.749,11.987 2.575,11.749 C2.571,11.743 2.565,11.739 2.561,11.733 C2.4,11.51 2.278,11.26 2.183,10.997 C2.164,10.944 2.15,10.892 2.134,10.839 C2.055,10.572 2,10.293 2,10 C2,9.705 2.055,9.426 2.135,9.158 C2.151,9.105 2.165,9.053 2.184,9.002 C2.278,8.738 2.4,8.488 2.562,8.264 C2.566,8.258 2.572,8.254 2.576,8.248 C2.75,8.012 2.957,7.799 3.192,7.621 C3.196,7.619 3.199,7.615 3.202,7.613 C3.442,7.434 3.711,7.287 4,7.184 C4.314,7.072 4.647,7 5,7 C5.353,7 5.686,7.072 6,7.184 C6.289,7.288 6.558,7.434 6.799,7.614 C6.802,7.616 6.805,7.62 6.809,7.622 C7.044,7.8 7.251,8.013 7.425,8.249 C7.429,8.255 7.435,8.259 7.439,8.265 C7.6,8.488 7.722,8.738 7.816,9.002 C7.835,9.053 7.85,9.105 7.865,9.158 C7.945,9.426 8,9.705 8,10 C8,10.293 7.945,10.572 7.865,10.84 C7.865,10.84 7.945,10.572 7.865,10.84 L7.865,10.84 L7.865,10.84 L7.865,10.84 L7.865,10.84 Z M7.865,10.84" id="Shape"></path>
                        <path d="M30,6.021 L30,3 C30,1.346 28.654,0 27,0 C25.346,0 24,1.346 24,3 L24,6.021 C22.791,6.936 22,8.369 22,10 C22,11.631 22.791,13.064 24,13.977 L24,29 C24,30.654 25.346,32 27,32 C28.654,32 30,30.654 30,29 L30,13.977 C31.207,13.065 32,11.631 32,10 C32,8.369 31.207,6.936 30,6.021 C30,6.021 31.207,6.936 30,6.021 L30,6.021 L30,6.021 L30,6.021 L30,6.021 Z M26,3 C26,2.447 26.447,2 27,2 C27.553,2 28,2.447 28,3 L28,5.1 C27.676,5.035 27.342,5 27,5 C26.656,5 26.322,5.035 26,5.1 L26,3 L26,3 L26,3 L26,3 Z M28,29 C28,29.553 27.553,30 27,30 C26.447,30 26,29.553 26,29 L26,14.898 C26.322,14.965 26.656,15 27,15 C27.342,15 27.676,14.965 28,14.898 L28,29 L28,29 L28,29 L28,29 Z M29.865,10.84 C29.849,10.893 29.834,10.945 29.816,10.998 C29.72,11.262 29.599,11.512 29.437,11.734 C29.433,11.74 29.427,11.744 29.423,11.75 C29.249,11.988 29.042,12.199 28.808,12.377 C28.804,12.381 28.8,12.383 28.798,12.385 C28.556,12.567 28.288,12.713 27.999,12.815 C27.686,12.928 27.352,13 27,13 C26.646,13 26.314,12.928 26,12.814 C25.711,12.712 25.441,12.566 25.201,12.384 C25.197,12.382 25.195,12.38 25.191,12.376 C24.955,12.198 24.748,11.987 24.574,11.749 C24.57,11.743 24.564,11.739 24.56,11.733 C24.4,11.51 24.277,11.26 24.183,10.997 C24.163,10.944 24.15,10.892 24.134,10.839 C24.055,10.572 24,10.293 24,10 C24,9.705 24.055,9.426 24.135,9.158 C24.151,9.105 24.164,9.053 24.184,9.002 C24.278,8.738 24.401,8.488 24.561,8.264 C24.565,8.258 24.571,8.254 24.575,8.248 C24.749,8.012 24.956,7.799 25.192,7.621 C25.196,7.619 25.198,7.615 25.202,7.613 C25.442,7.433 25.712,7.287 26.001,7.183 C26.314,7.072 26.646,7 27,7 C27.352,7 27.686,7.072 28,7.184 C28.289,7.288 28.557,7.434 28.799,7.614 C28.801,7.616 28.805,7.62 28.809,7.622 C29.043,7.8 29.25,8.013 29.424,8.249 C29.428,8.255 29.434,8.259 29.438,8.265 C29.6,8.49 29.721,8.74 29.817,9.003 C29.835,9.054 29.85,9.107 29.866,9.159 C29.945,9.426 30,9.705 30,10 C30,10.293 29.945,10.572 29.865,10.84 C29.865,10.84 29.945,10.572 29.865,10.84 L29.865,10.84 L29.865,10.84 L29.865,10.84 L29.865,10.84 Z M29.865,10.84" id="Shape"></path>
                        <path d="M19,18.021 L19,3 C19,1.346 17.654,0 16,0 C14.346,0 13,1.346 13,3 L13,18.021 C11.792,18.935 11,20.369 11,22 C11,23.631 11.792,25.064 13,25.977 L13,29 C13,30.654 14.346,32 16,32 C17.654,32 19,30.654 19,29 L19,25.977 C20.207,25.065 21,23.631 21,22 C21,20.369 20.207,18.936 19,18.021 C19,18.021 20.207,18.936 19,18.021 L19,18.021 L19,18.021 L19,18.021 L19,18.021 Z M15,3 C15,2.447 15.447,2 16,2 C16.553,2 17,2.447 17,3 L17,17.1 C16.676,17.036 16.342,17 16,17 C15.657,17 15.323,17.035 15,17.1 L15,3 L15,3 L15,3 L15,3 Z M17,29 C17,29.553 16.553,30 16,30 C15.447,30 15,29.553 15,29 L15,26.898 C15.323,26.965 15.657,27 16,27 C16.342,27 16.676,26.965 17,26.898 L17,29 L17,29 L17,29 L17,29 Z M18.865,22.84 C18.849,22.893 18.834,22.945 18.816,22.998 C18.72,23.262 18.599,23.512 18.437,23.734 C18.433,23.74 18.427,23.744 18.423,23.75 C18.249,23.988 18.042,24.199 17.808,24.377 C17.804,24.381 17.8,24.383 17.798,24.385 C17.556,24.567 17.288,24.713 16.999,24.815 C16.686,24.928 16.352,25 16,25 C15.647,25 15.314,24.928 15,24.814 C14.711,24.712 14.442,24.566 14.201,24.384 C14.198,24.382 14.195,24.38 14.191,24.376 C13.956,24.198 13.749,23.987 13.575,23.749 C13.571,23.743 13.565,23.739 13.561,23.733 C13.4,23.51 13.278,23.26 13.183,22.997 C13.164,22.944 13.15,22.892 13.134,22.839 C13.055,22.572 13,22.293 13,22 C13,21.705 13.055,21.426 13.135,21.158 C13.151,21.105 13.165,21.053 13.184,21.002 C13.279,20.738 13.401,20.488 13.562,20.264 C13.566,20.258 13.572,20.254 13.576,20.248 C13.75,20.012 13.957,19.799 14.192,19.621 C14.196,19.619 14.199,19.615 14.202,19.613 C14.443,19.433 14.712,19.287 15.001,19.183 C15.314,19.072 15.647,19 16,19 C16.352,19 16.686,19.072 17,19.184 C17.289,19.288 17.557,19.434 17.799,19.614 C17.801,19.616 17.805,19.62 17.809,19.622 C18.043,19.8 18.25,20.013 18.424,20.249 C18.428,20.255 18.434,20.259 18.438,20.265 C18.6,20.49 18.721,20.74 18.817,21.003 C18.835,21.054 18.85,21.107 18.866,21.159 C18.945,21.426 19,21.705 19,22 C19,22.293 18.945,22.572 18.865,22.84 C18.865,22.84 18.945,22.572 18.865,22.84 L18.865,22.84 L18.865,22.84 L18.865,22.84 L18.865,22.84 Z M18.865,22.84" id="Shape"></path>
                    </g>
                </g>
            </g>
        </g>
    </g>
</svg>